<svg height="512pt" viewBox="0 0 512 512" width="512pt" xmlns="http://www.w3.org/2000/svg" xmlns:xlink="http://www.w3.org/1999/xlink"><linearGradient id="a" gradientUnits="userSpaceOnUse" x1="256" x2="256" y1="0" y2="512"><stop offset="0" stop-color="#2af598"/><stop offset="1" stop-color="#009efd"/></linearGradient><path d="m310 140.566406v-139.25l-28.074219 12.382813c-.640625.285156-64.941406 28.300781-133.925781 28.300781h-20v234.484375c-12.804688-7.910156-27.875-12.484375-44-12.484375-46.316406 0-84 37.683594-84 84s37.683594 84 84 84 84-37.683594 84-84v-174.421875c79.640625-3.421875 128.480469-26.5 130.675781-27.558594zm-226 251.433594c-24.261719 0-44-19.738281-44-44s19.738281-44 44-44 44 19.738281 44 44-19.738281 44-44 44zm186-277.472656c-17.046875 6.167968-52.636719 16.691406-102 19.011718v-52.191406c40.824219-2.617187 77.941406-12.597656 102-20.550781zm-61 357.472656h303v40h-303zm-1-236h304v40h-304zm142-118h162v40h-162zm-141 236h303v40h-303zm303-354v40h-162v-40zm0 0" fill="url(#a)"/></svg>