<?xml version="1.0"?>
<svg xmlns="http://www.w3.org/2000/svg" xmlns:xlink="http://www.w3.org/1999/xlink" xmlns:svgjs="http://svgjs.com/svgjs" version="1.1" width="512" height="512" x="0" y="0" viewBox="0 0 36 36" style="enable-background:new 0 0 512 512" xml:space="preserve" class=""><g><g xmlns="http://www.w3.org/2000/svg" id="bg"><g><path fill="#efefef" d="M8.114,5.564C6.309,12.241,1.61,15.891,0.74,19.109s-0.847,10.475,13.955,14.477    s19.432-4.501,20.388-8.041C39.564,8.973,11.311-6.262,8.114,5.564z" data-original="#efefef" style="" class=""/></g></g><g xmlns="http://www.w3.org/2000/svg" id="effect"><g><g><rect x="7.033" y="3.556" transform="matrix(0.7071 -0.7071 0.7071 0.7071 -0.515 6.868)" fill="#a4afc1" width="2" height="1" data-original="#a4afc1" style=""/></g><g><rect x="2.967" y="7.621" transform="matrix(0.7071 -0.7071 0.7071 0.7071 -4.5806 5.1837)" fill="#a4afc1" width="2" height="1" data-original="#a4afc1" style=""/></g><g><rect x="3.467" y="2.879" transform="matrix(0.707 -0.7072 0.7072 0.707 -1.5809 3.9422)" fill="#a4afc1" width="1" height="2" data-original="#a4afc1" style=""/></g></g><g><path fill="#a4afc1" d="M32.783,32.5c-0.827,0-1.5-0.673-1.5-1.5s0.673-1.5,1.5-1.5s1.5,0.673,1.5,1.5S33.61,32.5,32.783,32.5z     M32.783,30.5c-0.276,0-0.5,0.225-0.5,0.5s0.224,0.5,0.5,0.5s0.5-0.225,0.5-0.5S33.059,30.5,32.783,30.5z" data-original="#a4afc1" style=""/></g></g><g xmlns="http://www.w3.org/2000/svg" id="color"><g><circle fill="#2fdf84" cx="26.5" cy="8.5" r="1.75" data-original="#2fdf84" style="" class=""/></g><g><path fill="#2fdf84" d="M20.25,11.25H7.75c-0.552,0-1-0.448-1-1v-2.5c0-0.552,0.448-1,1-1h12.5c0.552,0,1,0.448,1,1v2.5    C21.25,10.802,20.802,11.25,20.25,11.25z" data-original="#2fdf84" style="" class=""/></g><g><polygon fill="#f3f3f1" points="19.75,18.75 25.25,21.5 19.75,24.25   " data-original="#f3f3f1" style="" class=""/></g><g><path fill="#f3f3f1" d="M28.25,29.25h-12.5c-0.552,0-1-0.448-1-1v-12.5c0-0.552,0.448-1,1-1h12.5c0.552,0,1,0.448,1,1v12.5    C29.25,28.802,28.802,29.25,28.25,29.25z" data-original="#f3f3f1" style="" class=""/></g><g><path fill="#2fdf84" d="M9,19.25L9,19.25c-1.243,0-2.25-1.007-2.25-2.25v0c0-1.243,1.007-2.25,2.25-2.25h0    c1.243,0,2.25,1.007,2.25,2.25v0C11.25,18.243,10.243,19.25,9,19.25z" data-original="#2fdf84" style="" class=""/></g></g><g xmlns="http://www.w3.org/2000/svg" id="shadow"><g><path fill="#00b871" d="M9,10.25v-2.5c0-0.552,0.448-1,1-1H7.75c-0.552,0-1,0.448-1,1v2.5c0,0.552,0.448,1,1,1H10    C9.448,11.25,9,10.802,9,10.25z" data-original="#00b871" style="" class=""/></g><g><polygon fill="#d5dbe1" points="22,19.875 19.75,18.75 19.75,24.25 22,23.125   " data-original="#d5dbe1" style="" class=""/></g><g><path fill="#d5dbe1" d="M17,28.25v-12.5c0-0.552,0.448-1,1-1h-2.25c-0.552,0-1,0.448-1,1v12.5c0,0.552,0.448,1,1,1H18    C17.448,29.25,17,28.802,17,28.25z" data-original="#d5dbe1" style="" class=""/></g><g><path fill="#00b871" d="M9,17c0-0.831,0.455-1.548,1.125-1.938C9.793,14.869,9.412,14.75,9,14.75c-1.243,0-2.25,1.007-2.25,2.25    c0,1.243,1.007,2.25,2.25,2.25c0.412,0,0.793-0.119,1.125-0.312C9.455,18.548,9,17.831,9,17z" data-original="#00b871" style="" class=""/></g></g><g xmlns="http://www.w3.org/2000/svg" id="regular"><g><g><path d="M26.5,11C25.122,11,24,9.879,24,8.5S25.122,6,26.5,6S29,7.121,29,8.5S27.878,11,26.5,11z M26.5,7.5c-0.551,0-1,0.448-1,1     s0.449,1,1,1s1-0.448,1-1S27.051,7.5,26.5,7.5z" fill="#3b5b72" data-original="#000000" style="" class=""/></g><g><rect x="27.825" y="9.621" transform="matrix(0.707 -0.7072 0.7072 0.707 0.8939 23.308)" width="1.5" height="1.909" fill="#3b5b72" data-original="#000000" style="" class=""/></g></g><g><path d="M20.25,12H7.75C6.785,12,6,11.215,6,10.25v-2.5C6,6.785,6.785,6,7.75,6h12.5C21.215,6,22,6.785,22,7.75v2.5    C22,11.215,21.215,12,20.25,12z M7.75,7.5C7.612,7.5,7.5,7.612,7.5,7.75v2.5c0,0.138,0.112,0.25,0.25,0.25h12.5    c0.138,0,0.25-0.112,0.25-0.25v-2.5c0-0.138-0.112-0.25-0.25-0.25H7.75z" fill="#3b5b72" data-original="#000000" style="" class=""/></g><g><path d="M19.75,25c-0.137,0-0.274-0.037-0.395-0.112C19.135,24.751,19,24.51,19,24.25v-5.5c0-0.26,0.135-0.501,0.355-0.638    c0.222-0.138,0.497-0.148,0.73-0.033l5.5,2.75C25.839,20.956,26,21.216,26,21.5s-0.161,0.544-0.415,0.671l-5.5,2.75    C19.979,24.974,19.865,25,19.75,25z M20.5,19.964v3.072l3.073-1.536L20.5,19.964z" fill="#3b5b72" data-original="#000000" style="" class=""/></g><g><path d="M28.25,30h-12.5C14.785,30,14,29.215,14,28.25v-12.5c0-0.965,0.785-1.75,1.75-1.75h12.5c0.965,0,1.75,0.785,1.75,1.75    v12.5C30,29.215,29.215,30,28.25,30z M15.75,15.5c-0.138,0-0.25,0.112-0.25,0.25v12.5c0,0.138,0.112,0.25,0.25,0.25h12.5    c0.138,0,0.25-0.112,0.25-0.25v-12.5c0-0.138-0.112-0.25-0.25-0.25H15.75z" fill="#3b5b72" data-original="#000000" style="" class=""/></g><g><path d="M9,20c-1.654,0-3-1.346-3-3s1.346-3,3-3s3,1.346,3,3S10.654,20,9,20z M9,15.5c-0.827,0-1.5,0.673-1.5,1.5    s0.673,1.5,1.5,1.5s1.5-0.673,1.5-1.5S9.827,15.5,9,15.5z" fill="#3b5b72" data-original="#000000" style="" class=""/></g><g><rect x="6.75" y="25" width="4.5" height="1.5" fill="#3b5b72" data-original="#000000" style="" class=""/></g><g><rect x="6.75" y="28" width="4.5" height="1.5" fill="#3b5b72" data-original="#000000" style="" class=""/></g><g><rect x="6.75" y="22" width="4.5" height="1.5" fill="#3b5b72" data-original="#000000" style="" class=""/></g></g></g></svg>
