<?xml version="1.0"?>
<svg xmlns="http://www.w3.org/2000/svg" xmlns:xlink="http://www.w3.org/1999/xlink" xmlns:svgjs="http://svgjs.com/svgjs" version="1.1" width="512" height="512" x="0" y="0" viewBox="0 0 512 512" style="enable-background:new 0 0 512 512" xml:space="preserve" class=""><g><g xmlns="http://www.w3.org/2000/svg"><path d="m487.526 91h-231.526-225.211l-30.789 15v375c0 8.291 6.709 15 15 15h241 241c8.291 0 15-6.709 15-15v-375z" fill="#596c76" data-original="#596c76" style=""/><path d="m512 481v-375l-24.474-15h-231.526v405h241c8.291 0 15-6.709 15-15z" fill="#3b4a51" data-original="#3b4a51" style=""/><path d="m353.72 288.139-97.72-58.633-52.28-31.368c-4.629-2.783-10.415-2.856-15.117-.19s-7.603 7.647-7.603 13.052v180c0 5.405 2.9 10.386 7.603 13.052 4.698 2.662 10.472 2.591 15.117-.19l52.28-31.368 97.72-58.632c4.512-2.71 7.28-7.588 7.28-12.861s-2.769-10.152-7.28-12.862z" fill="#f0f7ff" data-original="#f0f7ff" style=""/><path d="m361 301c0-5.273-2.769-10.151-7.28-12.861l-97.72-58.633v142.987l97.72-58.632c4.511-2.71 7.28-7.588 7.28-12.861z" fill="#dfe7f4" data-original="#dfe7f4" style="" class=""/><path d="m512 106v-75c0-3.922-1.584-7.425-4.045-10.096l-86.437 41.577-28.026 43.519z" fill="#293939" data-original="#293939" style=""/><path d="m497 16h-103.506l-82.817 39.612-37.185 50.388h120l114.463-85.096c-2.739-2.976-6.586-4.904-10.955-4.904z" fill="#00d1f0" data-original="#f03800" style="" class=""/><path d="m273.494 16-17.494 8.337-64.807 30.886-37.701 50.777h102.508 17.492l120.002-90z" fill="#3b4a51" data-original="#3b4a51" style=""/><path d="m393.494 16h-120l-17.494 8.337v81.663h17.492z" fill="#293939" data-original="#293939" style=""/><path d="m256 16h-102.504l-94.272 47.452-26.734 42.548h121.002l102.508-76.88 17.494-13.12z" fill="#1affe7" data-original="#ff641a" style="" class=""/><path d="m256 16v13.12l17.494-13.12z" fill="#00d1f0" data-original="#f03800" style="" class=""/><path d="m15 16c-8.291 0-15 6.709-15 15v75h32.49l121.005-90z" fill="#3b4a51" data-original="#3b4a51" style=""/></g></g></svg>
