<?xml version="1.0"?>
<svg xmlns="http://www.w3.org/2000/svg" xmlns:xlink="http://www.w3.org/1999/xlink" xmlns:svgjs="http://svgjs.com/svgjs" version="1.1" width="512" height="512" x="0" y="0" viewBox="0 0 391.994 391.994" style="enable-background:new 0 0 512 512" xml:space="preserve"><g><path xmlns="http://www.w3.org/2000/svg" d="m225.557 391.994c-17.8.001-35.036-7.52-47.447-21.506l-57.73-63.663c-6.812-7.511-16.533-11.819-26.673-11.819h-1.183c-41.355 0-75-33.645-75-75v-42c0-41.355 33.645-75 75-75 10.623 0 20.647-4.654 27.504-12.768l56.902-67.346c17.414-20.782 45.127-28.225 70.614-18.97 25.501 9.263 41.98 32.78 41.98 59.912v264.343c0 26.748-16.165 50.148-41.181 59.615-7.475 2.828-15.183 4.202-22.786 4.202zm-.287-351.976c-5.315 0-11.976 1.747-17.693 8.58-.021.024-56.995 67.457-56.995 67.457-14.474 17.128-35.634 26.952-58.058 26.952-19.299 0-35 15.701-35 35v42c0 19.299 15.701 35 35 35h1.183c21.404 0 41.926 9.093 56.304 24.949 0 0 57.922 63.875 57.979 63.94 10.074 11.404 22.598 7.849 26.196 6.487 3.598-1.361 15.338-6.987 15.338-22.204v-264.345c0-15.436-11.968-20.982-15.636-22.315-1.551-.563-4.724-1.501-8.618-1.501zm131.433 200.831c23.515-23.271 23.714-61.335.442-84.852-7.768-7.851-20.432-7.917-28.284-.148-7.851 7.77-7.917 20.433-.147 28.284 7.757 7.839 7.691 20.527-.147 28.285-7.851 7.77-7.917 20.433-.147 28.284 3.912 3.952 9.063 5.932 14.217 5.932 5.082 0 10.168-1.926 14.066-5.785z" fill="#ffffff" data-original="#000000" style=""/></g></svg>
