<?xml version="1.0"?>
<svg xmlns="http://www.w3.org/2000/svg" xmlns:xlink="http://www.w3.org/1999/xlink" xmlns:svgjs="http://svgjs.com/svgjs" version="1.1" width="512" height="512" x="0" y="0" viewBox="0 0 512 512" style="enable-background:new 0 0 512 512" xml:space="preserve" class=""><g><path xmlns="http://www.w3.org/2000/svg" d="m234.035 511.997c-4.387 0-8.814-.853-13.046-2.605-12.751-5.282-20.989-17.612-20.989-31.413v-443.958c0-13.801 8.238-26.131 20.989-31.412 12.749-5.28 27.294-2.389 37.053 7.37.13.13.259.262.386.395l212.221 222.208c.049.051.097.103.146.154 12.241 13.046 12.241 33.483 0 46.529-.049.052-.097.104-.146.154l-212.221 222.208c-.127.133-.256.265-.386.395-6.52 6.519-15.178 9.975-24.007 9.975zm219.257-249.154h.01z" fill="#3ab4cc" data-original="#000000" style="" class=""/><path xmlns="http://www.w3.org/2000/svg" d="m124 512h-48c-24.262 0-44-19.738-44-44v-424c0-24.262 19.738-44 44-44h48c24.262 0 44 19.738 44 44v424c0 24.262-19.738 44-44 44zm0-464h.01z" fill="#3ab4cc" data-original="#000000" style="" class=""/></g></svg>
