<svg height="415pt" viewBox="0 -24 415.32475 415" width="415pt" xmlns="http://www.w3.org/2000/svg"><path d="m134.386719 323.292969c8.894531-7.78125 15.144531-18.140625 17.878906-29.640625l42.335937-149.488282h-6.589843c-15.308594-.046874-28.621094 10.480469-32.109375 25.386719l-.078125.292969-43.558594 153.808594c-2.734375 11.5-8.984375 21.859375-17.878906 29.640625h239.742187c15.75-.03125 29.292969-11.164063 32.375-26.609375l.058594-.269532.746094-3.121093zm0 0" fill="#d4e1f4"/><path d="m283.605469 98.835938h-2.3125c-3.402344-18.519532-19.53125-31.972657-38.359375-32h-161c-25.945313.027343-46.972656 21.054687-47 47v242.984374h14v-242.984374c.019531-18.21875 14.78125-32.980469 33-33h161c11.105468.011718 20.875 7.339843 24 18h-145c-25.945313.027343-46.96875 21.054687-47 47v207.984374h14v-207.984374c.023437-18.21875 14.785156-32.980469 33-33h161.671875c13.429687.015624 24.3125 10.898437 24.328125 24.328124h14c-.023438-21.160156-17.171875-38.304687-38.328125-38.328124zm0 0" fill="#1ae5be"/><path d="m368.324219 130.164062h-26.390625v-41.644531c-.03125-27.300781-22.15625-49.425781-49.457032-49.457031h-69.390624c-7.960938 0-15.65625-2.878906-21.664063-8.109375l-22.109375-19.242187c-8.554688-7.449219-19.515625-11.550782-30.859375-11.546876h-99c-27.300781.03125-49.421875 22.15625-49.453125 49.457032v260.753906c.0351562 30.257812 23.714844 55.210938 53.929688 56.839844v.078125h280.199218c22.375-.039063 41.636719-15.820313 46.078125-37.753907l34.167969-143 .058594-.269531c2.726562-13.792969-.871094-28.085937-9.796875-38.949219-8.929688-10.863281-22.25-17.15625-36.3125-17.15625zm-311.40625 223.128907c-23.691407-.027344-42.890625-19.226563-42.917969-42.917969v-260.753906c.023438-19.574219 15.882812-35.4375 35.457031-35.457032h99c7.964844 0 15.660157 2.878907 21.667969 8.105469l22.109375 19.246094c8.554687 7.445313 19.515625 11.546875 30.855469 11.546875h69.386718c19.574219.023438 35.4375 15.882812 35.460938 35.457031v41.644531h-139.925781c-21.746094-.066406-40.671875 14.847657-45.699219 36.003907l-43.5625 153.8125-.074219.292969c-4.539062 19.382812-21.851562 33.070312-41.757812 33.019531zm343.808593-169.867188-34.164062 142.988281-.058594.269532c-3.082031 15.445312-16.625 26.578125-32.375 26.609375h-239.742187c8.894531-7.78125 15.144531-18.140625 17.878906-29.640625l43.558594-153.808594.078125-.292969c3.488281-14.90625 16.800781-25.433593 32.109375-25.386719h180.3125c9.851562 0 19.1875 4.398438 25.457031 11.996094 6.265625 7.597656 8.816406 17.597656 6.945312 27.265625zm0 0" fill="#0635c9"/></svg>