<?xml version="1.0"?>
<svg xmlns="http://www.w3.org/2000/svg" xmlns:xlink="http://www.w3.org/1999/xlink" xmlns:svgjs="http://svgjs.com/svgjs" version="1.1" width="512" height="512" x="0" y="0" viewBox="0 0 512 512" style="enable-background:new 0 0 512 512" xml:space="preserve"><g><path xmlns="http://www.w3.org/2000/svg" d="m277.965 511.997c-8.831 0-17.487-3.455-24.007-9.976-.13-.13-.258-.262-.385-.395l-212.221-222.207c-.049-.052-.098-.104-.147-.155-12.239-13.045-12.239-33.482 0-46.527.049-.052.098-.104.147-.155l212.221-222.209c.127-.133.255-.265.385-.395 9.758-9.759 24.301-12.652 37.053-7.37 12.75 5.282 20.989 17.612 20.989 31.413v443.959c0 13.801-8.239 26.131-20.989 31.412-4.231 1.753-8.66 2.605-13.046 2.605z" fill="#3ab4cc" data-original="#000000" style=""/><path xmlns="http://www.w3.org/2000/svg" d="m436 512h-48c-24.262 0-44-19.738-44-44v-424c0-24.262 19.738-44 44-44h48c24.262 0 44 19.738 44 44v424c0 24.262-19.738 44-44 44z" fill="#3ab4cc" data-original="#000000" style=""/></g></svg>
